/* XPM */
static char *DC__[] = {
/* columns rows colors chars-per-pixel */
"22 22 166 2 ",
"   c black",
".  c gray8",
"X  c #1D1D1D",
"o  c #1E1E1E",
"O  c #2C2E18",
"+  c #3A3E15",
"@  c #2A2A22",
"#  c #2A2A2A",
"$  c #313131",
"%  c #373737",
"&  c #3C3C3C",
"*  c gray24",
"=  c #3E3E3E",
"-  c #3F3F3F",
";  c #3C401E",
":  c #5F6812",
">  c #646C19",
",  c #67701C",
"<  c #4D5030",
"1  c #5A6025",
"2  c #727A2E",
"3  c #72763B",
"4  c gray25",
"5  c #434343",
"6  c #494949",
"7  c gray29",
"8  c #4C4C4C",
"9  c #4E4E4E",
"0  c gray31",
"q  c #505050",
"w  c #535353",
"e  c gray35",
"r  c #5D5D5D",
"t  c gray37",
"y  c #5F5F5F",
"u  c #5F6055",
"i  c #737940",
"p  c #757940",
"a  c #747A41",
"s  c #787E45",
"d  c #797F46",
"f  c gray39",
"g  c DimGray",
"h  c gray43",
"j  c #6F6F6F",
"k  c gray44",
"l  c #727272",
"z  c #777777",
"x  c gray48",
"c  c gray49",
"v  c #7E7E7E",
"b  c #77802A",
"n  c #77802C",
"m  c #79802C",
"M  c #7B822E",
"N  c #7F8532",
"B  c #7D8632",
"V  c #7E844B",
"C  c #8D9C0A",
"Z  c #92A10A",
"A  c #97A514",
"S  c #9BA912",
"D  c #A4B01B",
"F  c #AAB51F",
"G  c #ABB61F",
"H  c #818734",
"J  c #A8B42D",
"K  c #B3BD2A",
"L  c #A2A938",
"P  c #B6C02B",
"I  c #B9C22B",
"U  c #BCC43F",
"Y  c #C2C932",
"T  c #C7CD36",
"R  c #8B9347",
"E  c #8C9259",
"W  c #838664",
"Q  c #8C8F6D",
"!  c #929675",
"~  c #92967B",
"^  c #999D7C",
"/  c #BCC550",
"(  c #C0C840",
")  c #D4D942",
"_  c #D1D549",
"`  c #C1C954",
"'  c #CFD453",
"]  c #E0E34E",
"[  c #DADD69",
"{  c #C1CA74",
"}  c #C2CB77",
"|  c #C6CE7C",
" . c #C8D07E",
".. c #DDE16B",
"X. c #808080",
"o. c gray51",
"O. c gray56",
"+. c #9E9E93",
"@. c #9D9D9D",
"#. c #9F9F9F",
"$. c #A2A685",
"%. c #ACB08F",
"&. c #BBBF9E",
"*. c #A5A5A5",
"=. c #A7A7A7",
"-. c #ABABA0",
";. c #AAAAAA",
":. c #B1B1B1",
">. c gray70",
",. c gray72",
"<. c #BCBCBC",
"1. c gray74",
"2. c #C9D187",
"3. c #DCE1B1",
"4. c #DEE2B4",
"5. c #C5C5C5",
"6. c #C6C6C6",
"7. c #C8C8C8",
"8. c #CACACA",
"9. c gray80",
"0. c #CECECE",
"q. c gray81",
"w. c #D0D0D0",
"e. c gray82",
"r. c #D2D2D2",
"t. c LightGray",
"y. c gray83",
"u. c #D5D5D5",
"i. c gray84",
"p. c #D7D7D7",
"a. c #DCDCD2",
"s. c #DDDDD3",
"d. c #D8D8D8",
"f. c gray85",
"g. c #DADADA",
"h. c gray86",
"j. c gainsboro",
"k. c #DDDDDD",
"l. c gray87",
"z. c #DFDFDF",
"x. c gray88",
"c. c #E1E1E1",
"v. c #E2E2E2",
"b. c gray89",
"n. c #E7E7E7",
"m. c gray91",
"M. c #EAEAEA",
"N. c gray92",
"B. c #ECECEC",
"V. c #EEEEEE",
"C. c gray94",
"Z. c #F1F1F1",
"A. c gray95",
"S. c #F3F3F3",
"D. c #F4F4F4",
"F. c gray96",
"G. c #F6F6F6",
"H. c gray97",
"J. c #F8F8F8",
"K. c #F9F9F9",
"L. c gray98",
"P. c #FBFBFB",
"I. c gray99",
"U. c #FDFDFD",
"Y. c gray100",
"T. c None",
/* pixels */
"T.T.T.T.T.T.T.T.T.T.T.T.T.T.T.T.T.T.T.T.T.T.",
"T.T.Y.Y.Y.Y.Y.Y.Y.Y.Y.Y.Y.Y.Y.Y.Y.Y.Y.Y.T.T.",
"T.K.K.H.D.&.E E &.A.J.J.H.K.K.H.H.H.H.K.K.T.",
"T.Y.H.a.R } 4.3.} R a.J.H.H.H.H.H.H.H.H.Y.T.",
"T.Y.N.B 2.3.3.3.3.2.B V.A.#.r r #.A.A.H.Y.T.",
"T.K.%.A } |  . .| } A ~ 9 j =.=.k 9 0.A.K.T.",
"T.H.V Z J / ` ` / J C @ v *.=.=.=.v = n.K.T.",
"T.A.s S F I Y Y I F : X k z x x z k X O.H.T.",
"T.C.^ D P T ) ) T K + . % e t t e % . 9 C.T.",
"T.C.8.M T _ ] ] _ U O o $ 5 7 7 5 $ X 6 N.T.",
"T.V.z.=.B ' ..[ L > 1 + = 0 t t 9 = # v N.T.",
"T.N.b.h.1.Q 3 b } 3.4.} 2 r j j f w = 5.N.T.",
"T.n.c.c.l.q.b 2.3.3.3.3.2., v o.g 5 #.g.n.T.",
"T.b.z.c.l.$.A } |  . .| } A < 8 k ,.y.l.c.T.",
"T.z.l.l.j.V Z J / ` ` / J Z 3 8.w.l.l.l.c.T.",
"T.g.g.h.g.a S G I Y Y I F S a g.l.l.g.g.g.T.",
"T.u.u.g.u.! D P T ) ) T I D ! d.h.g.d.d.u.T.",
"T.u.u.g.g.<.M ( _ ] ] _ / M 1.d.d.d.u.u.u.T.",
"T.w.w.w.y.0.+.B ' ....' H +.0.u.u.u.w.w.w.T.",
"T.:.q.q.w.w.5.;.W 3 a W -.5.w.w.w.w.w.w.:.T.",
"T.0 :.u.u.u.u.u.0.5.5.0.u.g.g.d.u.u.y.>.9 T.",
"T.T.T.                                T.T.T."
};
