/* XPM */
static char *top[] = {
/* columns rows colors chars-per-pixel */
"22 22 7 1 ",
"  c black",
". c #010101",
"X c gray1",
"o c #060606",
"O c gray4",
"+ c #6F6F6F",
"@ c None",
/* pixels */
"@@@@@@@@@@@@@@@@@@@@@@",
"@@@@@@@@@@@@@@@@@@@@@@",
"@@@@@@@@@@@@@@@@@@@@@@",
"@@@@@            @@@@@",
"@@@@@            @@@@@",
"@@@@@@@@@@++@@@@@@@@@@",
"@@@@@@@@@@  @@@@@@@@@@",
"@@@@@@@@@o  o@@@@@@@@@",
"@@@@@@@@@    @@@@@@@@@",
"@@@@@@@@      @@@@@@@@",
"@@@@@@@o      O@@@@@@@",
"@@@@@@@        @@@@@@@",
"@@@@@@          @@@@@@",
"@@@@@Oo        oO@@@@@",
"@@@@@@@@      @@@@@@@@",
"@@@@@@@@      @@@@@@@@",
"@@@@@@@@      @@@@@@@@",
"@@@@@@@@      @@@@@@@@",
"@@@@@@@@@@@@@@@@@@@@@@",
"@@@@@@@@@@@@@@@@@@@@@@",
"@@@@@@@@@@@@@@@@@@@@@@",
"@@@@@@@@@@@@@@@@@@@@@@"
};
