/* XPM */
static char *lock[] = {
/* columns rows colors chars-per-pixel */
"32 32 50 1 ",
"  c black",
". c #020202",
"X c gray1",
"o c #040404",
"O c gray2",
"+ c gray4",
"@ c #0B0B0B",
"# c gray6",
"$ c #101010",
"% c #131313",
"& c #151515",
"* c #181818",
"= c #1B1B1B",
"- c #1D1D1D",
"; c #202020",
": c gray13",
"> c gray14",
", c gray15",
"< c #3E3E3E",
"1 c gray27",
"2 c #4E4E4E",
"3 c #515151",
"4 c gray32",
"5 c gray33",
"6 c gray34",
"7 c gray36",
"8 c gray37",
"9 c gray38",
"0 c #626262",
"q c #656565",
"w c #747474",
"e c #9F9F9F",
"r c gray67",
"t c #ACACAC",
"y c gray69",
"u c #B6B6B6",
"i c #BBBBBB",
"p c #C0C0C0",
"a c gray77",
"s c #C6C6C6",
"d c #CBCBCB",
"f c gray82",
"g c gray84",
"h c #D7D7D7",
"j c gray86",
"k c #DDDDDD",
"l c #E1E1E1",
"z c #E6E6E6",
"x c gray92",
"c c None",
/* pixels */
"cccccccccccccccccccccccccccccccc",
"cccccccccccccccccccccccccccccccc",
"cccc........................cccc",
"cc............................cc",
"cc............................cc",
"cc............................cc",
"cc............................cc",
"cc............................cc",
"cc............................cc",
"cc..........Oraaaar+..........cc",
"cc..........9xueeux9..........cc",
"cc..........9z....z9..........cc",
"cc..........8l....k9..........cc",
"cc..........8j....j8..........cc",
"cc........<jkgllllgkj<........cc",
"cc........7dffffffffd7........cc",
"cc........5dddddddddd5........cc",
"cc........5ssssssssss5........cc",
"cc........4aaiaiiaaia2........cc",
"cc........4iiiiiiiiii2........cc",
"cc........2uuuuuuuuuu2........cc",
"cc........1tytyyyyyty1........cc",
"cc........+qwwwwwwwwq+........cc",
"cc............................cc",
"cc............................cc",
"cc............................cc",
"cc...........................Occ",
"ccO...........................cc",
"ccO...........................cc",
"cc.++#$$&&*--->>>>>--*&&$##++.cc",
"cccc........................cccc",
"cccccccccccccccccccccccccccccccc"
};
